<svg width="177" height="54" viewBox="0 0 177 54" fill="none" xmlns="http://www.w3.org/2000/svg">
<path d="M131.96 45.7453C132.41 45.7453 132.71 45.593 132.86 45.2788C133.01 44.9646 133.09 44.2029 133.09 42.9841V32.901C133.09 32.1012 133.02 31.568 132.87 31.2919C132.73 31.0157 132.44 30.8824 132.01 30.8824C131.58 30.8824 131.31 31.0062 131.17 31.2538C131.03 31.5013 130.95 32.0536 130.95 32.901V43.5744C130.95 44.4599 131.02 45.0407 131.16 45.3264C131.3 45.6025 131.56 45.7453 131.96 45.7453Z" fill="#FDF0E5"/>
<path d="M17.2799 22.6274C20.7999 22.6274 23.1899 22.7797 24.4299 23.0844C25.6699 23.3891 26.6199 23.8937 27.2599 24.5983C27.9099 25.3029 28.3099 26.0741 28.4699 26.9406C28.6299 27.7975 28.7099 29.4923 28.7099 32.006V41.3179C28.7099 43.7077 28.5899 45.2978 28.3599 46.1071C28.1199 46.9069 27.7099 47.5448 27.1199 47.9924C26.9699 48.1066 26.7899 48.1923 26.6199 48.2875H31.4399V22.6369H38.7399V43.8982H43.1799V48.2875H44.9499V22.6369H54.3899C54.6699 24.2365 54.9599 26.1218 55.2599 28.2831L56.2999 35.0433L57.9799 22.6274H67.4699V48.278H78.8899C77.9299 47.6496 77.2599 46.9164 76.9199 46.0405C76.4899 44.955 76.2799 43.4221 76.2799 41.4226V39.6802H83.0599V42.9175C83.0599 43.9172 83.1599 44.5551 83.3499 44.8408C83.5399 45.1264 83.8799 45.2692 84.3599 45.2692C84.8399 45.2692 85.2099 45.0883 85.4399 44.7265C85.6799 44.3647 85.7899 43.8315 85.7899 43.1174C85.7899 41.5559 85.5599 40.5276 85.1099 40.0515C84.6499 39.5659 83.5099 38.7661 81.6899 37.6331C79.8799 36.4905 78.6699 35.6717 78.0799 35.1575C77.4899 34.6434 76.9999 33.9293 76.6199 33.0247C76.2299 32.1202 76.0399 30.9586 76.0399 29.5399C76.0399 27.5023 76.3099 26.017 76.8599 25.0744C77.4099 24.1318 78.2999 23.3986 79.5199 22.8654C80.7399 22.3322 82.2199 22.0656 83.9599 22.0656C85.8599 22.0656 87.4699 22.3608 88.7999 22.9321C90.1299 23.5129 91.0199 24.246 91.4499 25.122C91.8799 26.0075 92.0999 27.5023 92.0999 29.6161V30.6634H85.3199V28.6925C85.3199 27.7689 85.2299 27.1881 85.0599 26.9406C84.8899 26.693 84.5999 26.5597 84.1899 26.5597C83.7499 26.5597 83.4199 26.7311 83.1899 27.0644C82.9599 27.4071 82.8499 27.9213 82.8499 28.6068C82.8499 29.4923 82.9799 30.1588 83.2299 30.6158C83.4699 31.0633 84.1599 31.6061 85.2899 32.244C88.5399 34.0721 90.5799 35.567 91.4299 36.7381C92.2699 37.9092 92.6999 39.7944 92.6999 42.4033C92.6999 44.2981 92.4699 45.6882 91.9999 46.5927C91.6699 47.2306 91.1099 47.7829 90.3399 48.2685H96.4699C96.4099 48.2209 96.3599 48.1828 96.2999 48.1352C95.7799 47.6781 95.4599 47.164 95.3299 46.5737C95.1999 45.9929 95.1399 44.6123 95.1399 42.4414V31.3776H93.6299V27.9308H95.1399V24.5031H102.16V27.9308H104.05V31.3776H102.16V43.0317C102.16 44.4694 102.24 45.2692 102.39 45.4311C102.55 45.593 103.2 45.6787 104.34 45.6787V48.259H106.67C106.5 48.078 106.34 47.8781 106.22 47.6591C105.89 47.0783 105.68 46.4785 105.6 45.8405C105.52 45.2121 105.48 43.9648 105.48 42.0891V27.3976H112.48V42.2224C112.48 43.9172 112.53 44.9265 112.65 45.2407C112.76 45.5549 113.06 45.7167 113.54 45.7167C114.06 45.7167 114.37 45.5549 114.47 45.2216C114.57 44.8979 114.62 43.841 114.62 42.051V27.3881H121.62V48.2399H125.17C124.73 47.821 124.42 47.3735 124.27 46.8688C124.04 46.1547 123.93 44.9931 123.93 43.384V33.1866C123.93 31.5109 124.04 30.3207 124.27 29.6256C124.49 28.921 125.01 28.3117 125.82 27.7785C126.63 27.2453 127.59 26.9787 128.71 26.9787C129.58 26.9787 130.37 27.131 131.09 27.4262C131.81 27.7213 132.47 28.1688 133.06 28.7592V22.5798H140.06V48.2304H142.57V27.3786H149.78V48.2304H154.47C154.2 48.04 153.95 47.84 153.74 47.6115C153.15 46.964 152.72 46.1738 152.47 45.2502C152.22 44.3266 152.09 42.9365 152.09 41.0894V35.5098C152.09 33.4818 152.32 31.9012 152.78 30.7682C153.24 29.6256 154.07 28.7116 155.28 28.026C156.49 27.3405 158.02 26.9882 159.89 26.9882C161.46 26.9882 162.81 27.2072 163.94 27.6547C164.41 27.8356 164.83 28.0546 165.21 28.2831C157.13 10.2401 138 2.11836 115.67 6.60293C102.9 9.16418 86.0799 20.1614 76.9299 21.2849C58.8599 22.2561 58.6399 12.4491 42.6599 10.7352C31.8799 9.5736 22.1699 14.5818 15.6899 22.5988H17.2499L17.2799 22.6274ZM142.6 22.6274H149.81V26.0932H142.6V22.6274Z" fill="#FDF0E5"/>
<path d="M168.18 40.4134C168.18 42.3748 168.08 43.8125 167.87 44.7266C167.66 45.6407 167.22 46.4976 166.54 47.2879C166.21 47.6687 165.84 48.002 165.42 48.2876H169.33C169.33 46.45 169.23 44.6028 169.03 42.7366C168.83 40.9085 168.55 39.1566 168.19 37.4523V40.4229L168.18 40.4134Z" fill="#FDF0E5"/>
<path d="M160.15 45.7453C160.57 45.7453 160.84 45.6025 160.97 45.3169C161.1 45.0312 161.17 44.4218 161.17 43.4792V33.4342C161.17 32.3202 161.11 31.6156 160.98 31.3204C160.85 31.0253 160.58 30.8824 160.17 30.8824C159.76 30.8824 159.48 31.0253 159.34 31.3204C159.2 31.6156 159.13 32.3107 159.13 33.4342V43.2698C159.13 44.2981 159.2 44.9646 159.34 45.2788C159.48 45.593 159.75 45.7453 160.15 45.7453Z" fill="#FDF0E5"/>
<path d="M133.09 47.6306C132.84 47.8687 132.59 48.0876 132.34 48.2781H133.09V47.6306Z" fill="#FDF0E5"/>
<path d="M21.4299 40.8037V30.473C21.4299 29.2733 21.3899 28.5021 21.3099 28.1593C21.2299 27.8165 21.0399 27.569 20.7599 27.4166C20.4699 27.2548 19.9299 27.1786 19.1299 27.1786V44.6598C20.1799 44.6598 20.8299 44.4599 21.0699 44.06C21.3099 43.6601 21.4299 42.5747 21.4299 40.8037Z" fill="#FDF0E5"/>
<path d="M11.8199 28.5306C8.95989 33.9007 7.35989 40.0515 7.44989 46.3642C7.44989 47.0116 7.48989 47.6496 7.53989 48.2875H11.8199V28.5402V28.5306Z" fill="#FDF0E5"/>
<path d="M53.8701 48.278L51.3401 31.6823L51.3301 48.278H53.8701Z" fill="#FDF0E5"/>
<path d="M114.59 48.2781L114.65 47.4021C114.43 47.7353 114.18 48.021 113.92 48.2781H114.59Z" fill="#FDF0E5"/>
<path d="M61.0799 48.278V31.2633L58.6699 48.278H61.0799Z" fill="#FDF0E5"/>
</svg>
