<svg width="400" height="130" viewBox="0 0 400 130" fill="none" xmlns="http://www.w3.org/2000/svg">
<path d="M298.62 110.54C299.638 110.54 300.317 110.171 300.656 109.411C300.996 108.651 301.177 106.809 301.177 103.861V79.4735C301.177 77.539 301.018 76.2494 300.679 75.5816C300.362 74.9137 299.706 74.5913 298.733 74.5913C297.76 74.5913 297.149 74.8907 296.832 75.4894C296.515 76.0882 296.334 77.4239 296.334 79.4735V105.289C296.334 107.431 296.492 108.836 296.809 109.527C297.126 110.194 297.714 110.54 298.62 110.54Z" fill="#2A2A3A"/>
<path d="M39.104 54.6252C47.0696 54.6252 52.478 54.9937 55.2841 55.7306C58.0902 56.4676 60.24 57.6881 61.6883 59.3923C63.1592 61.0964 64.0644 62.9618 64.4264 65.0574C64.7885 67.1301 64.9695 71.2293 64.9695 77.309V99.8315C64.9695 105.612 64.698 109.458 64.1775 111.415C63.6344 113.35 62.7066 114.893 61.3714 115.975C61.032 116.251 60.6247 116.459 60.24 116.689H71.1474V54.6483H87.667V106.072H97.7145V116.689H101.72V54.6483H123.082C123.716 58.5172 124.372 63.0769 125.051 68.3046L127.404 84.6553L131.206 54.6252H152.682V116.666H178.525C176.352 115.146 174.836 113.373 174.067 111.254C173.094 108.629 172.618 104.921 172.618 100.085V95.8705H187.961V103.7C187.961 106.118 188.187 107.661 188.617 108.352C189.047 109.043 189.817 109.389 190.903 109.389C191.989 109.389 192.827 108.951 193.347 108.076C193.89 107.201 194.139 105.911 194.139 104.184C194.139 100.407 193.619 97.9201 192.6 96.7686C191.559 95.5941 188.979 93.6597 184.861 90.9192C180.765 88.1557 178.027 86.1752 176.692 84.9316C175.357 83.688 174.248 81.9608 173.388 79.7731C172.505 77.5853 172.075 74.7757 172.075 71.3444C172.075 66.4162 172.686 62.8236 173.931 60.5437C175.175 58.2638 177.189 56.4906 179.95 55.201C182.711 53.9113 186.06 53.2665 189.998 53.2665C194.297 53.2665 197.941 53.9804 200.951 55.3622C203.96 56.7669 205.974 58.5402 206.947 60.6589C207.92 62.8006 208.418 66.4162 208.418 71.5286V74.0618H193.075V69.2948C193.075 67.061 192.872 65.6562 192.487 65.0574C192.102 64.4587 191.446 64.1363 190.518 64.1363C189.523 64.1363 188.776 64.5508 188.255 65.3568C187.735 66.1859 187.486 67.4294 187.486 69.0875C187.486 71.2293 187.78 72.8413 188.346 73.9467C188.889 75.0291 190.45 76.3417 193.008 77.8847C200.362 82.3063 204.979 85.9219 206.902 88.7545C208.803 91.587 209.776 96.1468 209.776 102.457C209.776 107.04 209.256 110.402 208.192 112.59C207.445 114.133 206.178 115.468 204.435 116.643H218.307C218.172 116.528 218.058 116.436 217.923 116.32C216.746 115.215 216.022 113.971 215.728 112.544C215.433 111.139 215.298 107.8 215.298 102.549V75.789H211.881V67.4525H215.298V59.162H231.184V67.4525H235.461V75.789H231.184V103.977C231.184 107.454 231.365 109.389 231.704 109.78C232.066 110.172 233.537 110.379 236.117 110.379V116.62H241.39C241.005 116.182 240.643 115.699 240.371 115.169C239.624 113.764 239.149 112.313 238.968 110.77C238.787 109.25 238.697 106.234 238.697 101.697V66.1628H254.537V102.019C254.537 106.118 254.65 108.56 254.922 109.32C255.171 110.079 255.85 110.471 256.936 110.471C258.113 110.471 258.814 110.079 259.041 109.273C259.267 108.49 259.38 105.934 259.38 101.605V66.1398H275.221V116.574H283.254C282.259 115.56 281.557 114.478 281.218 113.257C280.697 111.53 280.448 108.721 280.448 104.829V80.1646C280.448 76.1114 280.697 73.2328 281.218 71.5517C281.715 69.8475 282.892 68.3736 284.725 67.084C286.558 65.7944 288.731 65.1496 291.265 65.1496C293.234 65.1496 295.022 65.518 296.651 66.2319C298.28 66.9458 299.774 68.0282 301.109 69.456V54.5101H316.95V116.551H322.63V66.1168H338.946V116.551H349.559C348.948 116.09 348.382 115.606 347.907 115.054C346.572 113.488 345.599 111.576 345.033 109.343C344.467 107.109 344.173 103.746 344.173 99.2788V85.7837C344.173 80.8785 344.693 77.0556 345.734 74.3152C346.775 71.5517 348.654 69.3409 351.392 67.6828C354.13 66.0247 357.592 65.1726 361.824 65.1726C365.377 65.1726 368.432 65.7023 370.989 66.7846C372.053 67.2222 373.003 67.7519 373.863 68.3046C355.578 24.6643 312.288 5.0204 261.756 15.8671C232.858 22.062 194.795 48.6607 174.089 51.3781C133.198 53.7271 132.7 30.007 96.5378 25.8618C72.1431 23.0522 50.1698 35.1656 35.5059 54.5561H39.0361L39.104 54.6252ZM322.698 54.6252H339.013V63.0078H322.698V54.6252Z" fill="#2A2A3A"/>
<path d="M380.584 97.6435C380.584 102.388 380.357 105.865 379.882 108.076C379.407 110.287 378.411 112.359 376.872 114.271C376.126 115.192 375.288 115.998 374.338 116.689H383.186C383.186 112.244 382.96 107.776 382.507 103.263C382.055 98.841 381.421 94.6037 380.606 90.4814V97.6665L380.584 97.6435Z" fill="#2A2A3A"/>
<path d="M362.412 110.54C363.363 110.54 363.974 110.194 364.268 109.504C364.562 108.813 364.72 107.339 364.72 105.059V80.7631C364.72 78.0687 364.585 76.3646 364.29 75.6506C363.996 74.9367 363.385 74.5913 362.457 74.5913C361.53 74.5913 360.896 74.9367 360.579 75.6506C360.262 76.3646 360.104 78.0457 360.104 80.7631V104.552C360.104 107.039 360.262 108.651 360.579 109.411C360.896 110.171 361.507 110.54 362.412 110.54Z" fill="#2A2A3A"/>
<path d="M301.177 115.1C300.611 115.675 300.045 116.205 299.479 116.666H301.177V115.1Z" fill="#2A2A3A"/>
<path d="M48.4953 98.588V73.6014C48.4953 70.6997 48.4048 68.8344 48.2238 68.0053C48.0427 67.1763 47.6128 66.5775 46.9791 66.209C46.3229 65.8175 45.1009 65.6333 43.2905 65.6333V107.915C45.6666 107.915 47.1376 107.431 47.6807 106.464C48.2238 105.497 48.4953 102.871 48.4953 98.588Z" fill="#2A2A3A"/>
<path d="M26.7483 68.9033C20.2763 81.8918 16.6556 96.7686 16.8592 112.037C16.8592 113.603 16.9497 115.146 17.0629 116.689H26.7483V68.9264V68.9033Z" fill="#2A2A3A"/>
<path d="M121.906 116.666L116.18 76.5259L116.158 116.666H121.906Z" fill="#2A2A3A"/>
<path d="M259.312 116.666L259.448 114.547C258.95 115.353 258.384 116.044 257.796 116.666H259.312Z" fill="#2A2A3A"/>
<path d="M138.221 116.666V75.5127L132.768 116.666H138.221Z" fill="#2A2A3A"/>
</svg>
